<?xml version="1.0" encoding="UTF-8"?>
<svg width="100px" height="100px" viewBox="0 0 100 100" version="1.1" xmlns="http://www.w3.org/2000/svg" xmlns:xlink="http://www.w3.org/1999/xlink">
    <!-- Generator: Sketch 52.3 (67297) - http://www.bohemiancoding.com/sketch -->
    <title>Avatar / Images / App Types / Mobile</title>
    <desc>Created with Sketch.</desc>
    <g id="Avatar-/-Images-/-App-Types-/-Mobile" stroke="none" stroke-width="1" fill="none" fill-rule="evenodd">
        <rect fill="none" x="0" y="0" width="100" height="100"></rect>
        <g id="Group-2">
            <rect id="Rectangle" x="0" y="0" width="100" height="100"></rect>
        </g>
        <g id="service" transform="translate(20.833333, 22.916667)" fill-rule="nonzero">
            <polygon id="Fill-53" fill="#44C7F4" points="14.1745616 44.5812355 8.32211347 41.1958188 26.5335258 9.59201389 32.3859739 12.9774306"></polygon>
            <polygon id="Fill-54" fill="#EC5424" points="44.7420598 44.5812355 26.5306475 12.9774306 32.3830955 9.59201389 50.5945078 41.1958188"></polygon>
            <path d="M40.7345555,11.2847222 C40.7345555,17.5170863 35.6919804,22.5694444 29.4715447,22.5694444 C23.2511716,22.5694444 18.2085339,17.5170863 18.2085339,11.2847222 C18.2085339,5.05235822 23.2511716,0 29.4715447,0 C35.6919804,0 40.7345555,5.05235822 40.7345555,11.2847222" id="Fill-55" fill="#16214D"></path>
            <path d="M22.5260214,42.8819444 C22.5260214,49.1143084 17.4834463,54.1666667 11.2630107,54.1666667 C5.04263761,54.1666667 0,49.1143084 0,42.8819444 C0,36.6495804 5.04263761,31.5972223 11.2630107,31.5972223 C17.4834463,31.5972223 22.5260214,36.6495804 22.5260214,42.8819444" id="Fill-56" fill="#EC5424"></path>
            <path d="M58.9430894,42.8819444 C58.9430894,36.6495804 53.9004518,31.5972223 47.6800786,31.5972223 C41.4597057,31.5972223 36.417068,36.6495804 36.417068,42.8819444 C36.417068,49.1143084 41.4597057,54.1666667 47.6800786,54.1666667 C53.9004518,54.1666667 58.9430894,49.1143084 58.9430894,42.8819444" id="Fill-57" fill="#44C7F4"></path>
        </g>
    </g>
</svg>